<svg id="Layer_1" enable-background="new 0 0 512 512" viewBox="0 0 512 512" xmlns="http://www.w3.org/2000/svg"><g><path d="m424.04 246.72h19.33c4.51 0 8.14 3.63 8.14 8.14v19.33c0 7.57-3.09 14.43-8.05 19.39-4.99 4.99-11.85 8.08-19.42 8.08s-14.43-3.09-19.42-8.08c-4.96-4.96-8.05-11.82-8.05-19.39s3.09-14.43 8.05-19.42c4.99-4.96 11.85-8.05 19.42-8.05z" fill="#ff4646"/><path d="m512 238.64c0 4.48-3.63 8.11-8.14 8.11-4.48 0-8.11-3.63-8.11-8.11v-36.34c0-4.48 3.63-8.14 8.11-8.14 4.51 0 8.14 3.66 8.14 8.14zm-76.74-20.13c0-4.48 3.63-8.14 8.11-8.14 4.51 0 8.14 3.66 8.14 8.14v36.34c0 4.48-3.63 8.11-8.14 8.11-4.48 0-8.11-3.63-8.11-8.11z" fill="#ff4646"/><path d="m484.53 230.5h19.33c4.51 0 8.14 3.63 8.14 8.14v19.33c0 7.57-3.09 14.43-8.05 19.42-4.99 4.96-11.85 8.05-19.42 8.05s-14.43-3.09-19.39-8.05c-4.99-4.99-8.08-11.85-8.08-19.42s3.09-14.43 8.08-19.42c4.96-4.96 11.82-8.05 19.39-8.05z" fill="#ff4646"/><path d="m505.53 210.26-60.07 16.07c-4.34 1.16-8.79-1.39-9.92-5.73-.2-.71-.28-1.42-.28-2.1v-32.49c0-3.91 2.75-7.17 6.43-7.97l60.07-16.1c4.34-1.13 8.79 1.42 9.95 5.75.17.71.28 1.42.28 2.1v32.48c.01 3.94-2.77 7.2-6.46 7.99z" fill="#ff4646"/><g clip-rule="evenodd" fill-rule="evenodd"><path d="m173.09 227.75h197.51c0-47.96 7.54-83.51-45.21-88.1-2.55-.2-4.62-1.67-5.7-3.97-1.08-2.32-.85-4.85.62-6.92l8.79-12.44c1.53-2.18 1.7-4.85.48-7.2s-3.49-3.74-6.15-3.74h-63.55c-44.87 0-86.8 28.66-86.8 76.88v45.49z" fill="#333"/><path d="m190.41 210.43h162.85c9.55 0 17.35 7.8 17.35 17.32v22.08c0 9.52-7.8 17.32-17.35 17.32h-162.85c-9.52 0-17.32-7.8-17.32-17.32v-22.08c0-9.52 7.79-17.32 17.32-17.32z" fill="#cb9968"/><path d="m233.01 295.56h78.09v30.44c0 14.94 8.16 27.72 21.71 34.04 36.62 17.06 88.04 21.09 88.04 68.49v49.47c0 3.83-3.09 6.94-6.92 6.94h-283.76c-3.8 0-6.92-3.12-6.92-6.94v-49.46c0-47.4 51.42-51.42 88.04-68.49 13.55-6.32 21.71-19.11 21.71-34.04v-30.45z" fill="#ffd400"/><path d="m233.01 295.56h78.09v30.44c0 11 4.42 20.83 12.16 27.78-7.26 21.32-27.52 36.74-51.19 36.74-23.7 0-43.97-15.42-51.22-36.74 7.74-6.95 12.16-16.78 12.16-27.78z" fill="#fbbd80"/><path d="m233.01 295.56h78.09v30.44c0 3.4.43 6.69 1.25 9.81-11.68 6.01-24.89 9.41-38.86 9.41h-3.29c-13.83 0-26.9-3.32-38.49-9.21.85-3.17 1.3-6.55 1.3-10.01z" fill="#e2aa73"/><path d="m288.31 180.41 9.61 6.41c5.1 3.4 10.35 5.02 16.47 5.02h5.61c11.79 0 21.43 9.61 21.43 21.4v46.52c0 37.36-30.59 67.95-67.95 67.95h-3.29c-37.36 0-67.95-30.59-67.95-67.95v-46.52c0-11.79 9.64-21.4 21.43-21.4h5.61c6.12 0 11.37-1.62 16.47-5.02l9.61-6.41c10.19-6.8 22.78-6.8 32.95 0z" fill="#fbbd80"/></g><path d="m187.15 484.94v-31.89c0-4.48 3.63-8.11 8.14-8.11 4.48 0 8.11 3.63 8.11 8.11v31.89zm153.58 0v-31.89c0-4.48 3.63-8.11 8.14-8.11 4.48 0 8.11 3.63 8.11 8.11v31.89z" fill="#ba9b00"/><path clip-rule="evenodd" d="m426.16 128.88c28.03 0 50.91-22.88 50.91-50.91s-22.88-50.91-50.91-50.91-50.91 22.88-50.91 50.91 22.88 50.91 50.91 50.91z" fill="#0593fc" fill-rule="evenodd"/><path d="m418.03 51.66c0-4.48 3.66-8.14 8.14-8.14s8.14 3.66 8.14 8.14v18.17h18.17c4.51 0 8.14 3.66 8.14 8.14s-3.63 8.14-8.14 8.14h-26.31c-4.48 0-8.14-3.66-8.14-8.14z" fill="#fff"/><path clip-rule="evenodd" d="m58.37 27.06h97.09c7.37 0 13.41 6.04 13.41 13.41v75c0 7.37-6.04 13.41-13.41 13.41h-97.09c-7.37 0-13.41-6.04-13.41-13.41v-75c0-7.37 6.04-13.41 13.41-13.41z" fill="#ff4646" fill-rule="evenodd"/><path clip-rule="evenodd" d="m129.63 82.56-26.62 15.36c-1.67.99-3.63.99-5.3 0-1.7-.96-2.66-2.64-2.66-4.59v-30.72c0-1.96.96-3.63 2.66-4.59 1.67-.99 3.63-.99 5.3 0l26.62 15.36c1.7.96 2.66 2.64 2.66 4.59.01 1.96-.96 3.63-2.66 4.59z" fill="#f1f1f1" fill-rule="evenodd"/><path clip-rule="evenodd" d="m13.5 249.3h105.65v25.97h-105.65z" fill="#e6e6e6" fill-rule="evenodd"/><path clip-rule="evenodd" d="m115.09 231.04h15.14c5.05 0 9.18 4.14 9.18 9.18v44.11c0 5.05-4.14 9.18-9.18 9.18h-15.14c-5.07 0-9.21-4.14-9.21-9.18v-44.11c0-5.04 4.14-9.18 9.21-9.18z" fill="#2f5274" fill-rule="evenodd"/><path clip-rule="evenodd" d="m9.19 231.04h15.14c5.07 0 9.21 4.14 9.21 9.18v44.11c0 5.05-4.14 9.18-9.21 9.18h-15.14c-5.05 0-9.18-4.14-9.18-9.18v-44.11c-.01-5.04 4.13-9.18 9.18-9.18z" fill="#2f5274" fill-rule="evenodd"/></g></svg>