<svg id="_04_Rocket" enable-background="new 0 0 512 512" viewBox="0 0 512 512" xmlns="http://www.w3.org/2000/svg" xmlns:xlink="http://www.w3.org/1999/xlink"><linearGradient id="SVGID_1_" gradientTransform="matrix(.707 .707 .707 -.707 -127.77 279.23)" gradientUnits="userSpaceOnUse" x1="189.299" x2="326.386" y1="75.751" y2="6.306"><stop offset="0" stop-color="#fef48b"/><stop offset=".1646" stop-color="#fdf286"/><stop offset=".3352" stop-color="#fdee7a"/><stop offset=".5086" stop-color="#fce765"/><stop offset=".6839" stop-color="#fcde48"/><stop offset=".8589" stop-color="#fbd123"/><stop offset="1" stop-color="#fac600"/></linearGradient><linearGradient id="lg1"><stop offset="0" stop-color="#fe9738" stop-opacity="0"/><stop offset=".1207" stop-color="#fe9738" stop-opacity=".016"/><stop offset=".2459" stop-color="#fe9738" stop-opacity=".065"/><stop offset=".3731" stop-color="#fe9738" stop-opacity=".147"/><stop offset=".5018" stop-color="#fe9738" stop-opacity=".262"/><stop offset=".6317" stop-color="#fe9738" stop-opacity=".41"/><stop offset=".7625" stop-color="#fe9738" stop-opacity=".59"/><stop offset=".8916" stop-color="#fe9738" stop-opacity=".8"/><stop offset="1" stop-color="#fe9738"/></linearGradient><linearGradient id="SVGID_00000049903056849040976550000011153455772275423641_" gradientTransform="matrix(.707 .707 .707 -.707 -127.77 279.23)" gradientUnits="userSpaceOnUse" x1="254.941" x2="254.941" xlink:href="#lg1" y1="25.656" y2="75.546"/><linearGradient id="SVGID_00000072246314831281376680000013036524597728812465_" gradientTransform="matrix(.707 .707 .707 -.707 -127.77 279.23)" gradientUnits="userSpaceOnUse" x1="280.076" x2="313.897" xlink:href="#lg1" y1="28.267" y2="6.622"/><linearGradient id="SVGID_00000065775449527213290660000014722640769250714549_" gradientTransform="matrix(.707 .707 .707 -.707 -127.77 279.23)" gradientUnits="userSpaceOnUse" x1="193.291" x2="312.341" y1="94.663" y2="22.962"><stop offset="0" stop-color="#c41926" stop-opacity="0"/><stop offset=".1379" stop-color="#c41926" stop-opacity=".021"/><stop offset=".2809" stop-color="#c41926" stop-opacity=".085"/><stop offset=".4263" stop-color="#c41926" stop-opacity=".191"/><stop offset=".5732" stop-color="#c41926" stop-opacity=".339"/><stop offset=".7215" stop-color="#c41926" stop-opacity=".53"/><stop offset=".8686" stop-color="#c41926" stop-opacity=".761"/><stop offset="1" stop-color="#c41926"/></linearGradient><linearGradient id="lg2"><stop offset="0" stop-color="#60b7ff"/><stop offset=".1892" stop-color="#5eb2fc"/><stop offset=".3853" stop-color="#58a6f6"/><stop offset=".5845" stop-color="#4f91eb"/><stop offset=".7859" stop-color="#4274dd"/><stop offset=".9873" stop-color="#324fca"/><stop offset="1" stop-color="#314dc9"/></linearGradient><linearGradient id="SVGID_00000033341735969478585630000004663341659598952891_" gradientTransform="matrix(.707 .707 .707 -.707 -220.093 251.35)" gradientUnits="userSpaceOnUse" x1="170.416" x2="241.808" xlink:href="#lg2" y1="326.097" y2="209.047"/><linearGradient id="lg3"><stop offset="0" stop-color="#192a7d" stop-opacity="0"/><stop offset=".1738" stop-color="#192a7d" stop-opacity=".033"/><stop offset=".354" stop-color="#192a7d" stop-opacity=".133"/><stop offset=".537" stop-color="#192a7d" stop-opacity=".299"/><stop offset=".7221" stop-color="#192a7d" stop-opacity=".531"/><stop offset=".907" stop-color="#192a7d" stop-opacity=".827"/><stop offset="1" stop-color="#192a7d"/></linearGradient><linearGradient id="SVGID_00000017489510168995095550000002089356363737680004_" gradientTransform="matrix(.707 .707 .707 -.707 -220.093 251.35)" gradientUnits="userSpaceOnUse" x1="187.685" x2="187.685" xlink:href="#lg3" y1="235.894" y2="208.2"/><linearGradient id="SVGID_00000031904663499014288250000016062739088455155108_" gradientTransform="matrix(-.707 -.707 .707 -.707 -1323.458 -852.015)" gradientUnits="userSpaceOnUse" x1="-2069.851" x2="-1998.459" xlink:href="#lg2" y1="326.097" y2="209.047"/><linearGradient id="SVGID_00000049217614912342610380000009259295392042725800_" gradientTransform="matrix(.707 .707 .707 -.707 -220.093 251.35)" gradientUnits="userSpaceOnUse" x1="480.328" x2="426.092" xlink:href="#lg3" y1="292.025" y2="299.773"/><linearGradient id="SVGID_00000173877945465293404860000012550610929704771263_" gradientTransform="matrix(.707 .707 .707 -.707 -220.093 251.35)" gradientUnits="userSpaceOnUse" x1="475.94" x2="518.554" xlink:href="#lg3" y1="287.959" y2="321.718"/><linearGradient id="SVGID_00000108311193527691923320000008720158654025606282_" gradientTransform="matrix(.707 .707 .707 -.707 -220.093 251.35)" gradientUnits="userSpaceOnUse" x1="492.187" x2="492.187" xlink:href="#lg3" y1="235.894" y2="208.2"/><linearGradient id="lg4"><stop offset="0" stop-color="#7b7179"/><stop offset=".2651" stop-color="#766d74"/><stop offset=".5398" stop-color="#6a6369"/><stop offset=".8179" stop-color="#555255"/><stop offset="1" stop-color="#444"/></linearGradient><linearGradient id="SVGID_00000146471573163694412520000003795055855820006054_" gradientTransform="matrix(.707 .707 .707 -.707 -220.093 251.35)" gradientUnits="userSpaceOnUse" x1="277.521" x2="386.429" xlink:href="#lg4" y1="150.543" y2="150.543"/><linearGradient id="lg5"><stop offset="0" stop-color="#444" stop-opacity="0"/><stop offset=".3899" stop-color="#3d3d3d" stop-opacity=".16"/><stop offset=".7931" stop-color="#292929" stop-opacity=".637"/><stop offset="1" stop-color="#1a1a1a"/></linearGradient><linearGradient id="SVGID_00000019677516208556280380000016377682445918891942_" gradientTransform="matrix(.707 .707 .707 -.707 -220.093 251.35)" gradientUnits="userSpaceOnUse" x1="339.936" x2="339.936" xlink:href="#lg5" y1="137.3" y2="171.611"/><linearGradient id="SVGID_00000117642990203575433500000014352973516687601068_" gradientTransform="matrix(.707 .707 .707 -.707 -220.093 251.35)" gradientUnits="userSpaceOnUse" x1="351.964" x2="403.969" xlink:href="#lg5" y1="150.348" y2="171.451"/><linearGradient id="SVGID_00000054249102139725780190000007159240191373663403_" gradientTransform="matrix(.707 .707 .707 -.707 -220.093 251.35)" gradientUnits="userSpaceOnUse" x1="339.936" x2="339.936" xlink:href="#lg5" y1="143.329" y2="116.571"/><linearGradient id="SVGID_00000005981220115032750020000016369066597927945130_" gradientTransform="matrix(.707 .707 .707 -.707 -220.093 251.35)" gradientUnits="userSpaceOnUse" x1="324.701" x2="343.921" xlink:href="#lg5" y1="202.86" y2="97.721"/><linearGradient id="SVGID_00000106857239203617794490000010209798083907343258_" gradientTransform="matrix(.707 .707 .707 -.707 -220.093 251.35)" gradientUnits="userSpaceOnUse" x1="327.928" x2="344.462" xlink:href="#lg5" y1="196.825" y2="106.378"/><linearGradient id="lg6"><stop offset="0" stop-color="#fe646f"/><stop offset=".236" stop-color="#fc5f6b"/><stop offset=".4805" stop-color="#f7535f"/><stop offset=".7289" stop-color="#ef3e4b"/><stop offset=".9785" stop-color="#e5212f"/><stop offset="1" stop-color="#e41f2d"/></linearGradient><linearGradient id="SVGID_00000089558384174017953580000000319173178661128846_" gradientTransform="matrix(.707 .707 .707 -.707 -220.093 251.35)" gradientUnits="userSpaceOnUse" x1="339.936" x2="339.936" xlink:href="#lg6" y1="217.388" y2="160.586"/><linearGradient id="lg7"><stop offset="0" stop-color="#c41926" stop-opacity="0"/><stop offset=".1865" stop-color="#c01926" stop-opacity=".038"/><stop offset=".3798" stop-color="#b61c26" stop-opacity=".152"/><stop offset=".5761" stop-color="#a62126" stop-opacity=".343"/><stop offset=".7747" stop-color="#8f2826" stop-opacity=".609"/><stop offset=".9732" stop-color="#713126" stop-opacity=".949"/><stop offset="1" stop-color="#6d3326"/></linearGradient><linearGradient id="SVGID_00000144308203833635760050000012806087437646610320_" gradientTransform="matrix(.707 .707 .707 -.707 -220.093 251.35)" gradientUnits="userSpaceOnUse" x1="339.936" x2="339.936" xlink:href="#lg7" y1="177.23" y2="203.818"/><linearGradient id="SVGID_00000125576526651450345030000000054806399742153100_" gradientTransform="matrix(.707 .707 .707 -.707 -220.093 251.35)" gradientUnits="userSpaceOnUse" x1="339.936" x2="339.936" xlink:href="#lg7" y1="182.211" y2="163.915"/><linearGradient id="SVGID_00000068645782619007814250000016645851610629762956_" gradientTransform="matrix(.707 .707 .707 -.707 -220.093 251.35)" gradientUnits="userSpaceOnUse" x1="381.198" x2="348.546" xlink:href="#lg7" y1="185.706" y2="210.056"/><linearGradient id="SVGID_00000124861939580638033920000007048704932889799059_" gradientTransform="matrix(.707 .707 .707 -.707 -220.093 251.35)" gradientUnits="userSpaceOnUse" x1="380.993" x2="423.348" xlink:href="#lg7" y1="189.787" y2="189.787"/><linearGradient id="lg8"><stop offset="0" stop-color="#eaf6ff"/><stop offset=".2677" stop-color="#e5f3fc"/><stop offset=".5449" stop-color="#d9eaf6"/><stop offset=".8257" stop-color="#c4ddeb"/><stop offset="1" stop-color="#b4d2e2"/></linearGradient><linearGradient id="SVGID_00000063600562424644840360000007600049632111598475_" gradientTransform="matrix(.707 .707 .707 -.707 -220.093 251.35)" gradientUnits="userSpaceOnUse" x1="264.392" x2="444.017" xlink:href="#lg8" y1="409.272" y2="409.272"/><linearGradient id="lg9"><stop offset="0" stop-color="#8d9ca8" stop-opacity="0"/><stop offset=".1493" stop-color="#8d9ca8" stop-opacity=".025"/><stop offset=".304" stop-color="#8d9ca8" stop-opacity=".099"/><stop offset=".4613" stop-color="#8d9ca8" stop-opacity=".222"/><stop offset=".6204" stop-color="#8d9ca8" stop-opacity=".395"/><stop offset=".7808" stop-color="#8d9ca8" stop-opacity=".618"/><stop offset=".9402" stop-color="#8d9ca8" stop-opacity=".887"/><stop offset="1" stop-color="#8d9ca8"/></linearGradient><linearGradient id="SVGID_00000074406146103427678440000005180759510309492663_" gradientTransform="matrix(.707 .707 .707 -.707 -220.093 251.35)" gradientUnits="userSpaceOnUse" x1="364.856" x2="455.756" xlink:href="#lg9" y1="402.466" y2="388.769"/><linearGradient id="SVGID_00000049212042731010356500000010401322929756162950_" gradientTransform="matrix(.707 .707 .707 -.707 -220.093 251.35)" gradientUnits="userSpaceOnUse" x1="399.44" x2="466.682" xlink:href="#lg9" y1="413.756" y2="428.698"/><linearGradient id="SVGID_00000134928243969071494470000005028477724786082198_" gradientTransform="matrix(.707 .707 .707 -.707 -220.093 251.35)" gradientUnits="userSpaceOnUse" x1="413.043" x2="335.01" xlink:href="#lg9" y1="374.377" y2="464.032"/><linearGradient id="SVGID_00000095309730305182356980000016256014746154787975_" gradientTransform="matrix(.707 .707 .707 -.707 -220.093 251.35)" gradientUnits="userSpaceOnUse" x1="293.137" x2="384.726" xlink:href="#lg6" y1="625.573" y2="625.573"/><linearGradient id="SVGID_00000115478610082189654970000010845202325037551295_" gradientTransform="matrix(.707 .707 .707 -.707 -220.093 251.35)" gradientUnits="userSpaceOnUse" x1="356.76" x2="401.588" xlink:href="#lg7" y1="619.052" y2="633.441"/><linearGradient id="SVGID_00000166649722712965130540000011710349811269080452_" gradientTransform="matrix(.707 .707 .707 -.707 -220.093 251.35)" gradientUnits="userSpaceOnUse" x1="339.936" x2="339.936" xlink:href="#lg9" y1="226.762" y2="199.367"/><linearGradient id="SVGID_00000057147353575670722000000016673334923936746891_" gradientTransform="matrix(.707 .707 .707 -.707 -220.093 251.35)" gradientUnits="userSpaceOnUse" x1="281.921" x2="398.251" xlink:href="#lg2" y1="511.925" y2="395.594"/><linearGradient id="SVGID_00000182520603577350890130000012679536922724819343_" gradientTransform="matrix(.707 .707 .707 -.707 -220.093 251.35)" gradientUnits="userSpaceOnUse" x1="391.368" x2="275.773" xlink:href="#lg2" y1="402.477" y2="518.072"/><linearGradient id="SVGID_00000142161654635918717520000007914902669878893753_" gradientTransform="matrix(.707 .707 .707 -.707 -220.093 251.35)" gradientUnits="userSpaceOnUse" x1="339.936" x2="339.936" xlink:href="#lg3" y1="438.761" y2="344.577"/><linearGradient id="SVGID_00000075132770506986747410000001356744757790261643_" gradientTransform="matrix(.707 .707 .707 -.707 -220.093 251.35)" gradientUnits="userSpaceOnUse" x1="354.519" x2="454.11" xlink:href="#lg3" y1="450.941" y2="430.663"/><linearGradient id="SVGID_00000014601613642708436950000002101105022680867479_" gradientTransform="matrix(.707 .707 .707 -.707 -220.093 251.35)" gradientUnits="userSpaceOnUse" x1="288.779" x2="376.918" xlink:href="#lg4" y1="505.067" y2="416.927"/><linearGradient id="SVGID_00000056413098243217572540000016701042656968083872_" gradientTransform="matrix(.707 .707 .707 -.707 -220.093 251.35)" gradientUnits="userSpaceOnUse" x1="366.604" x2="268.646" xlink:href="#lg5" y1="453.909" y2="453.909"/><linearGradient id="SVGID_00000181046168594521448610000010908898857195846557_" gradientTransform="matrix(.707 .707 .707 -.707 -220.093 251.35)" gradientUnits="userSpaceOnUse" x1="358.393" x2="287.555" xlink:href="#lg5" y1="432.857" y2="513.657"/><linearGradient id="SVGID_00000080184252979264279230000008719945569178658697_" gradientTransform="matrix(.707 .707 .707 -.707 -220.093 251.35)" gradientUnits="userSpaceOnUse" x1="339.936" x2="339.936" xlink:href="#lg5" y1="435.127" y2="528.499"/><linearGradient id="SVGID_00000039131357046373136150000011985818154322559658_" gradientTransform="matrix(.707 .707 .707 -.707 -220.093 251.35)" gradientUnits="userSpaceOnUse" x1="234.206" x2="374.845" xlink:href="#lg8" y1="447.44" y2="246.706"/><linearGradient id="SVGID_00000100369057175353344450000004673251179320965775_" gradientTransform="matrix(.707 .707 .707 -.707 -220.093 251.35)" gradientUnits="userSpaceOnUse" x1="339.936" x2="339.936" xlink:href="#lg9" y1="275.325" y2="250.39"/><linearGradient id="SVGID_00000122703070780396784240000010193574698899806114_" gradientTransform="matrix(.707 .707 .707 -.707 -220.093 251.35)" gradientUnits="userSpaceOnUse" x1="367.85" x2="397.366" xlink:href="#lg9" y1="296.532" y2="296.532"/><linearGradient id="SVGID_00000041994968163681255780000015413711625093068948_" gradientTransform="matrix(.707 .707 .707 -.707 -220.093 251.35)" gradientUnits="userSpaceOnUse" x1="391.924" x2="337.965" xlink:href="#lg9" y1="267.216" y2="264.172"/><linearGradient id="SVGID_00000109721864621373756220000009567785991987240343_" gradientTransform="matrix(.707 .707 .707 -.707 -220.093 251.35)" gradientUnits="userSpaceOnUse" x1="325.651" x2="354.857" xlink:href="#lg2" y1="254.161" y2="254.161"/><linearGradient id="SVGID_00000098914266094295761120000012752342427140841885_" gradientTransform="matrix(.707 .707 .707 -.707 -220.093 251.35)" gradientUnits="userSpaceOnUse" x1="339.937" x2="339.937" xlink:href="#lg3" y1="192.726" y2="168.923"/><g><g><path d="m153.6 468.7c31.8-31.8 30.4-84.2-4.1-114.2-29.4-25.5-73.9-25.2-103 .8-16.7 14.9-25.3 35.1-26 55.6-.5 16.4-5.2 32.3-12.5 46.9-9.8 19.7-11 37.9-1.4 47.5s27.8 8.4 47.5-1.4c14.7-7.3 30.7-11.9 47.1-12.5 19.1-.6 37.9-8.1 52.4-22.7z" fill="url(#SVGID_1_)"/><path d="m153.6 468.7c31.8-31.8 30.4-84.2-4.1-114.2-29.4-25.5-73.9-25.2-103 .8-16.7 14.9-25.3 35.1-26 55.6-.5 16.4-5.2 32.3-12.5 46.9-9.8 19.7-11 37.9-1.4 47.5s27.8 8.4 47.5-1.4c14.7-7.3 30.7-11.9 47.1-12.5 19.1-.6 37.9-8.1 52.4-22.7z" fill="url(#SVGID_00000049903056849040976550000011153455772275423641_)"/><path d="m153.6 468.7c31.8-31.8 30.4-84.2-4.1-114.2-29.4-25.5-73.9-25.2-103 .8-16.7 14.9-25.3 35.1-26 55.6-.5 16.4-5.2 32.3-12.5 46.9-9.8 19.7-11 37.9-1.4 47.5s27.8 8.4 47.5-1.4c14.7-7.3 30.7-11.9 47.1-12.5 19.1-.6 37.9-8.1 52.4-22.7z" fill="url(#SVGID_00000072246314831281376680000013036524597728812465_)"/><path d="m134.6 442.6c18.8-18.8 18-49.7-2.4-67.4-17.4-15.1-43.7-14.9-60.8.5-9.8 8.8-15 20.8-15.4 32.8-.3 9.7-3.1 19.1-7.4 27.7-5.8 11.7-6.5 22.4-.8 28.1s16.4 4.9 28.1-.8c8.7-4.3 18.1-7 27.8-7.4 11.2-.5 22.3-5 30.9-13.5z" fill="url(#SVGID_00000065775449527213290660000014722640769250714549_)"/></g><g><path d="m230.3 157h-190c-18.4 0-27.6 22.3-14.6 35.3l93.3 93.3z" fill="url(#SVGID_00000033341735969478585630000004663341659598952891_)"/><path d="m230.3 157h-190c-18.4 0-27.6 22.3-14.6 35.3l93.3 93.3z" fill="url(#SVGID_00000017489510168995095550000002089356363737680004_)"/><path d="m355 281.7v189.9c0 18.4-22.3 27.6-35.3 14.6l-93.3-93.2z" fill="url(#SVGID_00000031904663499014288250000016062739088455155108_)"/><path d="m355 281.7v189.9c0 18.4-22.3 27.6-35.3 14.6l-93.3-93.2z" fill="url(#SVGID_00000049217614912342610380000009259295392042725800_)"/><path d="m355 281.7v189.9c0 18.4-22.3 27.6-35.3 14.6l-93.3-93.2z" fill="url(#SVGID_00000173877945465293404860000012550610929704771263_)"/><path d="m355 281.7v189.9c0 18.4-22.3 27.6-35.3 14.6l-93.3-93.2z" fill="url(#SVGID_00000108311193527691923320000008720158654025606282_)"/></g><g><path d="m158.7 461.1-107.8-107.8c-3.5-3.5-1.9-9.3 2.8-10.7l57.9-16.4 74.3 74.3-16.4 57.9c-1.4 4.7-7.3 6.2-10.8 2.7z" fill="url(#SVGID_00000146471573163694412520000003795055855820006054_)"/><path d="m158.7 461.1-107.8-107.8c-3.5-3.5-1.9-9.3 2.8-10.7l57.9-16.4 74.3 74.3-16.4 57.9c-1.4 4.7-7.3 6.2-10.8 2.7z" fill="url(#SVGID_00000019677516208556280380000016377682445918891942_)"/><path d="m158.7 461.1-107.8-107.8c-3.5-3.5-1.9-9.3 2.8-10.7l57.9-16.4 74.3 74.3-16.4 57.9c-1.4 4.7-7.3 6.2-10.8 2.7z" fill="url(#SVGID_00000117642990203575433500000014352973516687601068_)"/><path d="m158.7 461.1-107.8-107.8c-3.5-3.5-1.9-9.3 2.8-10.7l57.9-16.4 74.3 74.3-16.4 57.9c-1.4 4.7-7.3 6.2-10.8 2.7z" fill="url(#SVGID_00000054249102139725780190000007159240191373663403_)"/><path d="m143.8 446.2-78-78 59.4-28.4 47 47z" fill="url(#SVGID_00000005981220115032750020000016369066597927945130_)"/><path d="m117.4 419.8-25.2-25.2 48.9-38.9 15.2 15.2z" fill="url(#SVGID_00000106857239203617794490000010209798083907343258_)"/></g><path d="m123.6 291.3 97.2 97.2c4.3 4.3 4.3 11.4 0 15.7l-19.7 19.7c-4.3 4.3-11.4 4.3-15.7 0l-97.2-97.2c-4.3-4.3-4.3-11.4 0-15.7l19.7-19.7c4.3-4.4 11.4-4.4 15.7 0z" fill="url(#SVGID_00000089558384174017953580000000319173178661128846_)"/><path d="m123.6 291.3 97.2 97.2c4.3 4.3 4.3 11.4 0 15.7l-19.7 19.7c-4.3 4.3-11.4 4.3-15.7 0l-97.2-97.2c-4.3-4.3-4.3-11.4 0-15.7l19.7-19.7c4.3-4.4 11.4-4.4 15.7 0z" fill="url(#SVGID_00000144308203833635760050000012806087437646610320_)"/><path d="m123.6 291.3 97.2 97.2c4.3 4.3 4.3 11.4 0 15.7l-19.7 19.7c-4.3 4.3-11.4 4.3-15.7 0l-97.2-97.2c-4.3-4.3-4.3-11.4 0-15.7l19.7-19.7c4.3-4.4 11.4-4.4 15.7 0z" fill="url(#SVGID_00000125576526651450345030000000054806399742153100_)"/><path d="m201.8 423.1 18.2-18.2c4.7-4.7 4.7-12.4 0-17.1l-52.2-52.2-31.2 27.2v12.4l47.9 47.9c4.9 4.7 12.6 4.7 17.3 0z" fill="url(#SVGID_00000068645782619007814250000016645851610629762956_)"/><path d="m220 387.7-44.3-44.3-35.4 35.4 44.3 44.3c4.7 4.7 12.4 4.7 17.1 0l18.2-18.2c4.9-4.8 4.9-12.5.1-17.2z" fill="url(#SVGID_00000124861939580638033920000007048704932889799059_)"/><path d="m403.9 268.4c-8.1 8.1-16.5 15.6-25.1 22.6l-143.6 115.2c-5.8 4.6-14.1 4.2-19.4-1.1l-109-109c-5.2-5.2-5.7-13.6-1.1-19.4l115.3-143.6c35.5-44 85.9-81.1 148.5-106.6l88.5 27.5 27.5 88.5c-20.5 50.3-48.5 92.7-81.6 125.9z" fill="url(#SVGID_00000063600562424644840360000007600049632111598475_)"/><path d="m485.5 142.4-27.5-88.4-43.7-13.6-281.6 281.6 83.1 83.1c5.2 5.2 13.6 5.7 19.4 1.1l143.6-115.3c8.7-7 17.1-14.5 25.1-22.6 33.1-33.1 61.1-75.5 81.6-125.9z" fill="url(#SVGID_00000074406146103427678440000005180759510309492663_)"/><path d="m485.5 142.4-27.5-88.4-43.7-13.6-281.6 281.6 83.1 83.1c5.2 5.2 13.6 5.7 19.4 1.1l143.6-115.3c8.7-7 17.1-14.5 25.1-22.6 33.1-33.1 61.1-75.5 81.6-125.9z" fill="url(#SVGID_00000049212042731010356500000010401322929756162950_)"/><path d="m265.6 171.7v210.1l113.1-90.8c8.7-7 17.1-14.5 25.1-22.6 4.4-4.4 8.7-9 13-13.8v-83.1z" fill="url(#SVGID_00000134928243969071494470000005028477724786082198_)"/><path d="m485.5 142.5c-16.7-19.1-35.6-39.3-56.1-59.9s-40.8-39.4-59.9-56.1c25.9-10.5 53.9-19.1 83.8-25.4 17.2-3.6 33.4 2.2 44.4 13.2s16.8 27.2 13.2 44.4c-6.3 29.9-14.9 57.9-25.4 83.8z" fill="url(#SVGID_00000095309730305182356980000016256014746154787975_)"/><path d="m485.5 142.5c-16.7-19.1-35.6-39.3-56.1-59.9-9.8-9.8-19.5-19.2-29.1-28.2l53.4-53.4c17-3.4 33.1 2.4 44 13.3 11 11 16.8 27.2 13.2 44.4-6.3 29.9-14.9 57.9-25.4 83.8z" fill="url(#SVGID_00000115478610082189654970000010845202325037551295_)"/><path d="m162.9 205.7-57.1 71.2c-4.6 5.8-4.2 14.1 1.1 19.3l109 109c5.2 5.2 13.6 5.7 19.3 1.1l71.2-57.1z" fill="url(#SVGID_00000166649722712965130540000011710349811269080452_)"/><g><g><circle cx="341.2" cy="170.8" fill="url(#SVGID_00000057147353575670722000000016673334923936746891_)" r="75.6"/><circle cx="341.2" cy="170.8" fill="url(#SVGID_00000182520603577350890130000012679536922724819343_)" r="67.3"/><path d="m287.8 117.3c-29.5 29.5-29.5 77.4 0 107s77.4 29.5 107 0c5.3-5.3 9.7-11.3 13.1-17.6l-102.6-102.5c-6.3 3.4-12.2 7.7-17.5 13.1z" fill="url(#SVGID_00000142161654635918717520000007914902669878893753_)"/><path d="m394.7 117.3c-6.1-6.1-13-10.9-20.3-14.5l-101.2 101.1c3.6 7.3 8.4 14.2 14.5 20.3 29.5 29.5 77.4 29.5 107 0s29.6-77.4 0-106.9z" fill="url(#SVGID_00000075132770506986747410000001356744757790261643_)"/></g><g><circle cx="341.2" cy="170.8" fill="url(#SVGID_00000014601613642708436950000002101105022680867479_)" r="57.1"/><circle cx="341.2" cy="170.8" fill="url(#SVGID_00000056413098243217572540000016701042656968083872_)" r="57.1"/><circle cx="341.2" cy="170.8" fill="url(#SVGID_00000181046168594521448610000010908898857195846557_)" r="57.1"/><circle cx="341.2" cy="170.8" fill="url(#SVGID_00000080184252979264279230000008719945569178658697_)" r="57.1"/></g></g><g><path d="m228.4 226.4 57.2 57.2c3.3 3.3 3.3 8.6 0 11.8l-42.2 42.2c-3.3 3.3-8.6 3.3-11.8 0l-57.2-57.2c-3.3-3.3-3.3-8.6 0-11.8l42.2-42.2c3.2-3.3 8.5-3.3 11.8 0z" fill="url(#SVGID_00000039131357046373136150000011985818154322559658_)"/><path d="m228.4 226.4 57.2 57.2c3.3 3.3 3.3 8.6 0 11.8l-42.2 42.2c-3.3 3.3-8.6 3.3-11.8 0l-57.2-57.2c-3.3-3.3-3.3-8.6 0-11.8l42.2-42.2c3.2-3.3 8.5-3.3 11.8 0z" fill="url(#SVGID_00000100369057175353344450000004673251179320965775_)"/><path d="m228.4 226.4 57.2 57.2c3.3 3.3 3.3 8.6 0 11.8l-42.2 42.2c-3.3 3.3-8.6 3.3-11.8 0l-57.2-57.2c-3.3-3.3-3.3-8.6 0-11.8l42.2-42.2c3.2-3.3 8.5-3.3 11.8 0z" fill="url(#SVGID_00000122703070780396784240000010193574698899806114_)"/></g><path d="m257.6 388.2v-130.9l-101.4 88.3 59.5 59.5c5.2 5.2 13.6 5.7 19.4 1.1z" fill="url(#SVGID_00000041994968163681255780000015413711625093068948_)"/><g><path d="m239.9 285.5c5.3-7.1 10.4-14.4 15.1-21.9 2.7-4.3 3.2-7.3 2-8.6-1.3-1.3-4.3-.8-8.6 2-7.5 4.8-14.8 9.8-21.9 15.1-17.1 12.8-32.7 26.8-45.7 40.8l-42.2 45.5c-1.7 1.8-2.5 3.7-1.9 4.3l12.6 12.6c.6.6 2.5-.2 4.3-1.9l45.5-42.2c2.7-2.5 5.5-5.2 8.2-7.9 11.2-11.3 22.3-24.1 32.6-37.8z" fill="url(#SVGID_00000109721864621373756220000009567785991987240343_)"/><path d="m171.3 323.2-32.7 35.2c-1.7 1.8-2.5 3.7-1.9 4.3l12.6 12.6c.6.6 2.5-.2 4.3-1.9l35.2-32.7z" fill="url(#SVGID_00000098914266094295761120000012752342427140841885_)"/></g></g></svg>