<svg id="Layer_1" viewBox="0 0 512 512" xmlns="http://www.w3.org/2000/svg" data-name="Layer 1"><path d="m83.836 297.649h1.648l-.864-.863c-.255.302-.515.594-.784.863z"/><path d="m435.432 324.583c37.65 0 68.568-30.918 68.568-68.568s-30.888-68.598-68.568-68.598h-55.192c37.119-.631 67.405-31.278 67.405-68.538 0-37.709-30.888-68.598-68.568-68.598h-354.754c-8.995 0-16.323 7.327-16.323 16.323s7.328 16.293 16.323 16.293h9.516c6.529 9.336 10.182 22.034 10.182 35.967s-3.668 26.632-10.206 35.967h-9.492c-8.995 0-16.323 7.298-16.323 16.323s7.328 16.293 16.323 16.293h55.768c-8.723.313-15.735 7.496-15.735 16.293 0 8.995 7.327 16.293 16.323 16.293h9.483c13.55 19.505 13.558 52.415.022 71.934h-9.505c-8.995 0-16.323 7.298-16.323 16.323 0 8.796 7.011 15.95 15.732 16.263h-55.765c-8.995 0-16.323 7.327-16.323 16.323s7.328 16.293 16.323 16.293h9.494c6.543 9.339 10.204 22.049 10.204 35.997s-3.644 26.604-10.16 35.937h-9.538c-8.995 0-16.323 7.298-16.323 16.323s7.328 16.293 16.323 16.293h354.754c37.65 0 68.568-30.918 68.568-68.568 0-23.253-11.749-43.901-29.59-56.318v-12.25h17.378z" fill="#e7effa"/><path d="m410.054 386.377c-1.131 0-2.266-.24-3.326-.725l-31.524-14.415-31.554 14.416c-2.476 1.132-5.358.926-7.649-.546s-3.675-4.008-3.675-6.73v-21.208h-298.509c6.543 9.339 10.204 22.049 10.204 35.997s-3.644 26.604-10.16 35.937h345.216c19.838 0 35.952-16.114 35.952-35.952 0-2.718-.314-5.363-.891-7.912-1.254.746-2.663 1.138-4.084 1.138z" fill="#b2e7f1"/><path d="m33.815 154.831h345.262c19.838 0 35.952-16.114 35.952-35.952s-16.174-35.982-35.952-35.982h-345.238c6.529 9.336 10.182 22.034 10.182 35.967s-3.668 26.632-10.206 35.967z" fill="#fef2a8"/><path d="m24.323 82.897c-8.995 0-16.323-7.298-16.323-16.293s7.327-16.323 16.323-16.323h354.754c37.68 0 68.568 30.888 68.568 68.598s-30.918 68.568-68.568 68.568h-354.754c-8.995 0-16.323-7.298-16.323-16.293s7.327-16.323 16.323-16.323h354.754c19.838 0 35.952-16.114 35.952-35.952s-16.174-35.982-35.952-35.982z" fill="#ef8bbd"/><path d="m24.323 82.897c-8.995 0-16.323-7.298-16.323-16.293s7.327-16.323 16.323-16.323h354.754c37.68 0 68.568 30.888 68.568 68.598s-30.918 68.568-68.568 68.568h-354.754c-8.995 0-16.323-7.298-16.323-16.293s7.327-16.323 16.323-16.323h354.754c19.838 0 35.952-16.114 35.952-35.952s-16.174-35.982-35.952-35.982z" fill="#ef8bbd"/><path d="m235.835 106.879h-192.761c.62 3.852.947 7.862.947 11.985s-.33 8.155-.955 12.015h192.769c6.627 0 12-5.373 12-12s-5.373-12-12-12z" fill="#f0ac94"/><g fill="#ad99c9"><path d="m195.892 268.015c6.627 0 12-5.373 12-12s-5.373-12-12-12h-96.527c1.283 7.87 1.283 16.13 0 24h96.526z"/><path d="m440.585 244.015h-193.432c-6.627 0-12 5.373-12 12s5.373 12 12 12h193.432c6.627 0 12-5.373 12-12s-5.373-12-12-12z"/></g><path d="m235.835 381.151h-192.766c.623 3.861.952 7.882.952 12.015s-.328 8.133-.947 11.985h192.761c6.627 0 12-5.373 12-12s-5.373-12-12-12z" fill="#95cde6"/><path d="m386.894 83.769c6.181 10.29 9.75 22.304 9.75 35.11s-3.576 24.802-9.766 35.091c16.092-3.57 28.15-17.933 28.15-35.091s-12.086-31.516-28.135-35.11z" fill="#eadb92"/><path d="m379.077 50.282h-51c24.884 0 46.798 13.477 58.817 33.487 16.049 3.594 28.135 17.99 28.135 35.11s-12.058 31.521-28.15 35.091c-12.028 19.994-33.944 33.477-58.802 33.477h51c37.65 0 68.568-30.918 68.568-68.568s-30.888-68.598-68.568-68.598z" fill="#e068bd"/><path d="m443.25 220.905c6.181 10.29 9.75 22.304 9.75 35.11s-3.576 24.802-9.766 35.091c16.092-3.57 28.15-17.933 28.15-35.091s-12.086-31.516-28.135-35.11z" fill="#d7e4f2"/><path d="m332.325 268.015v110.362c0 2.723 1.385 5.258 3.675 6.73 2.291 1.472 5.173 1.678 7.649.546l31.554-14.416 31.524 14.415c1.061.485 2.195.725 3.326.725 1.51 0 3.014-.427 4.324-1.269 2.291-1.472 3.676-4.008 3.676-6.731v-110.362h-85.729z" fill="#e068bd"/><g fill="#ef7c85"><path d="m24.323 357.169h308.002v-32.616h-308.002c-8.995 0-16.323 7.327-16.323 16.323s7.328 16.293 16.323 16.293z"/><path d="m418.054 336.831v41.546c0 2.723-1.385 5.259-3.676 6.731-.078.05-.162.084-.24.131.577 2.549.891 5.194.891 7.912 0 19.838-16.114 35.952-35.952 35.952h-354.754c-8.995 0-16.323 7.298-16.323 16.323s7.328 16.293 16.323 16.293h354.754c37.65 0 68.568-30.918 68.568-68.568 0-23.251-11.753-43.897-29.59-56.32z"/></g><g fill="#9762e2"><path d="m435.432 187.417h-354.754c-8.995 0-16.323 7.327-16.323 16.323s7.327 16.293 16.323 16.293h354.754c19.778 0 35.952 16.174 35.952 35.982s-16.114 35.952-35.952 35.952h-17.378v32.616h17.378c37.65 0 68.568-30.918 68.568-68.568s-30.888-68.598-68.568-68.598z"/><path d="m332.325 291.967h-251.647c-8.995 0-16.323 7.298-16.323 16.323s7.327 16.293 16.323 16.293h251.646v-32.616z"/></g><path d="m410.054 386.377c-1.131 0-2.266-.24-3.326-.725l-11.275-5.156c.776 4.105 1.192 8.333 1.192 12.654 0 12.792-3.576 24.802-9.766 35.091 16.092-3.57 28.15-17.933 28.15-35.091 0-2.718-.307-5.367-.884-7.916-1.256.749-2.667 1.142-4.091 1.142z" fill="#95cde6"/><g fill="#e06877"><path d="m332.325 324.553h-4.248c1.427 0 2.842.05 4.248.137z"/><path d="m418.054 336.831v41.546c0 2.723-1.385 5.259-3.676 6.731-.075.048-.157.081-.233.127.577 2.549.884 5.198.884 7.916 0 17.158-12.058 31.521-28.15 35.091-12.028 19.994-33.944 33.477-58.802 33.477h51c37.65 0 68.568-30.918 68.568-68.568 0-23.251-11.753-43.897-29.59-56.32z"/></g><path d="m435.432 187.417h-51c24.884 0 46.798 13.477 58.817 33.487 16.049 3.594 28.135 17.99 28.135 35.11s-12.058 31.521-28.15 35.091c-6.13 10.19-14.833 18.683-25.18 24.567v8.91h17.378c37.65 0 68.568-30.918 68.568-68.568s-30.888-68.598-68.568-68.598z" fill="#8959d3"/><path d="m332.325 268.015v10.235h44.606c12.163 0 22.023 9.86 22.023 22.023v69.54c0 2.082-.694 4.144-2.112 5.669-1.587 1.707-3.731 2.579-5.889 2.579-.322 0-.644-.025-.965-.064l16.739 7.654c1.061.485 2.195.725 3.326.725 2.158 0 4.302-.872 5.889-2.579 1.417-1.524 2.112-3.587 2.112-5.669v-110.114h-85.73z" fill="#ce4eb0"/></svg>